{"title":"Ted 2 (2015) Cam Rip - X264 - [1CD] Rip - LotterY [GloDLS]","uid":12069661,"size":732749164,"categoryP":"video","categoryS":"movies","magnet":"?xt=urn:btih:42f595d476888a53a97805fdae6708fc30d31f77&amp;dn=Ted+2+%282015%29+Cam+Rip+-+X264+-+%5B1CD%5D+Rip+-+LotterY+%5BGloDLS%5D&amp;tr=udp%3A%2F%2Ftracker.openbittorrent.com%3A80&amp;tr=udp%3A%2F%2Fopen.demonii.com%3A1337&amp;tr=udp%3A%2F%2Ftracker.coppersurfer.tk%3A6969&amp;tr=udp%3A%2F%2Fexodus.desync.com%3A6969","seeders":1,"leechers":1,"uploader":"H4ckus3","files":4,"time":1435486707,"description":"Format                                   : Matroska\nFormat version                           : Version 2\nFile size                                : 699 MiB\nDuration                                 : 1h 47mn\nOverall bit rate                         : 906 Kbps\nEncoded date                             : UTC 2015-06-27 06:41:12\nWriting application                      : mkvmerge v7.7.0 ('Six Voices') 32bit built on Feb 28 2015 23:23:00\nWriting library                          : libebml v1.3.1 + libmatroska v1.4.2\nDURATION                                 : 01:47:48.650000000\nNUMBER_OF_FRAMES                         : 185721\nNUMBER_OF_BYTES                          : 310495176\n_STATISTICS_WRITING_APP                  : mkvmerge v7.7.0 ('Six Voices') 32bit built on Feb 28 2015 23:23:00\n_STATISTICS_WRITING_DATE_UTC             : 2015-06-27 06:41:12\n_STATISTICS_TAGS                         : BPS DURATION NUMBER_OF_FRAMES NUMBER_OF_BYTES\n\nVideo\nID                                       : 1\nFormat                                   : AVC\nFormat/Info                              : Advanced Video Codec\nFormat profile                           : &lt;a class=&quot;__cf_email__&quot; href=&quot;/cdn-cgi/l/email-protection&quot; data-cfemail=&quot;bcf4d5dbd4fcf08e928d&quot;&gt;[email&amp;#160;protected]&lt;/a&gt;&lt;script data-cfhash='f9e31' type=&quot;text/javascript&quot;&gt;\n/* &lt;![CDATA[ */!function(){try{var t=&quot;currentScript&quot;in document?document.currentScript:function(){for(var t=document.getElementsByTagName(&quot;script&quot;),e=t.length;e--;)if(t[e].getAttribute(&quot;data-cfhash&quot;))return t[e]}();if(t&amp;&amp;t.previousSibling){var e,r,n,i,c=t.previousSibling,a=c.getAttribute(&quot;data-cfemail&quot;);if(a){for(e=&quot;&quot;,r=parseInt(a.substr(0,2),16),n=2;a.length-n;n+=2)i=parseInt(a.substr(n,2),16)^r,e+=String.fromCharCode(i);e=document.createTextNode(e),c.parentNode.replaceChild(e,c)}t.parentNode.removeChild(t);}}catch(u){}}()/* ]]&gt; */&lt;/script&gt;\nFormat settings, CABAC                   : Yes\nFormat settings, ReFrames                : 4 frames\nCodec ID                                 : V_MPEG4/ISO/AVC\nDuration                                 : 1h 47mn\nBit rate                                 : 521 Kbps\nWidth                                    : 640 pixels\nHeight                                   : 272 pixels\nDisplay aspect ratio                     : 2.35:1\nFrame rate mode                          : Constant\nFrame rate                               : 14.985 fps\nColor space                              : YUV\nChroma subsampling                       : 4:2:0\nBit depth                                : 8 bits\nScan type                                : Progressive\nBits/(Pixel*Frame)                       : 0.200\nStream size                              : 389 MiB (56%)\nWriting library                          : x264 core 146 r2538 121396c\nEncoding settings                        : cabac=1 / ref=3 / deblock=1:0:0 / analyse=0x3:0x113 / me=hex / subme=7 / psy=1 / psy_rd=1.00:0.00 / mixed_ref=1 / me_range=16 / chroma_me=1 / trellis=1 / 8x8dct=1 / cqm=0 / deadzone=21,11 / fast_pskip=1 / chroma_qp_offset=-2 / threads=12 / lookahead_threads=2 / sliced_threads=0 / nr=0 / decimate=1 / interlaced=0 / bluray_compat=0 / constrained_intra=0 / bframes=3 / b_pyramid=2 / b_adapt=1 / b_bias=0 / direct=1 / weightb=1 / open_gop=0 / weightp=2 / keyint=150 / keyint_min=14 / scenecut=40 / intra_refresh=0 / rc_lookahead=40 / rc=2pass / mbtree=1 / bitrate=521 / ratetol=1.0 / qcomp=0.60 / qpmin=0 / qpmax=69 / qpstep=4 / cplxblur=20.0 / qblur=0.5 / ip_ratio=1.40 / aq=1:1.00\nDefault                                  : Yes\nForced                                   : No\n\nAudio\nID                                       : 2\nFormat                                   : AC-3\nFormat/Info                              : Audio Coding 3\nMode extension                           : CM (complete main)\nFormat settings, Endianness              : Big\nCodec ID                                 : A_AC3\nDuration                                 : 1h 47mn\nBit rate mode                            : Constant\nBit rate                                 : 384 Kbps\nChannel(s)                               : 2 channels\nChannel positions                        : Front: L R\nSampling rate                            : 44.1 KHz\nBit depth                                : 16 bits\nCompression mode                         : Lossy\nStream size                              : 296 MiB (42%)\nDefault                                  : Yes\nForced                                   : No\n\nSCREENS: &lt;a href=&quot;\nhttp://imgchicken.com/images/30089696598966236880.jpg&quot; rel=&quot;nofollow&quot; target=&quot;_NEW&quot;&gt;\nhttp://imgchicken.com/images/30089696598966236880.jpg&lt;/a&gt; &lt;a href=&quot;\nhttp://imgchicken.com/images/34884263993373053859.jpg&quot; rel=&quot;nofollow&quot; target=&quot;_NEW&quot;&gt;\nhttp://imgchicken.com/images/34884263993373053859.jpg&lt;/a&gt; &lt;a href=&quot;\nhttp://imgchicken.com/images/51153964715828301129.jpg&quot; rel=&quot;nofollow&quot; target=&quot;_NEW&quot;&gt;\nhttp://imgchicken.com/images/51153964715828301129.jpg&lt;/a&gt; &lt;a href=&quot;\nhttp://imgchicken.com/images/78918604367025294038.jpg&quot; rel=&quot;nofollow&quot; target=&quot;_NEW&quot;&gt;\nhttp://imgchicken.com/images/78918604367025294038.jpg&lt;/a&gt; &lt;a href=&quot;\nhttp://imgchicken.com/images/13043670727337002412.jpg&quot; rel=&quot;nofollow&quot; target=&quot;_NEW&quot;&gt;\nhttp://imgchicken.com/images/13043670727337002412.jpg&lt;/a&gt;\n\n\n\nDo Not Hit &amp; Run! Pls Seed After Download To Keep This Post Alive &amp; Drop Your Feedback So We know What You Want","torrent":{"xt":"urn:btih:42f595d476888a53a97805fdae6708fc30d31f77","amp;dn":"Ted+2+%282015%29+Cam+Rip+-+X264+-+%5B1CD%5D+Rip+-+LotterY+%5BGloDLS%5D","amp;tr":["udp%3A%2F%2Ftracker.openbittorrent.com%3A80","udp%3A%2F%2Fopen.demonii.com%3A1337","udp%3A%2F%2Ftracker.coppersurfer.tk%3A6969","udp%3A%2F%2Fexodus.desync.com%3A6969"],"infoHash":"42f595d476888a53a97805fdae6708fc30d31f77","infoHashBuffer":{"type":"Buffer","data":[66,245,149,212,118,136,138,83,169,120,5,253,174,103,8,252,48,211,31,119]},"announce":[],"urlList":[]}}